# xmcd CD database file
#
# Track frame offsets:
#	150
#	31357
#	57172
#	93860
#	124260
#	132600
#	153557
#	159875
#	185412
#	198072
#	235087
#	246605
#
# Disc length: 3418 seconds
#
# Revision: 4
# Processed by: cddbd v1.5.1PL0 Copyright (c) Steve Scherf et al.
# Submitted via: CDex 1.50Beta7
#
DISCID=9e0d580c
DTITLE=Mane Silveira - Bonsai Machine
DYEAR=1996
DGENRE=Jazz
TTITLE0=Voo Livre
TTITLE1=Chorinho pra Loi
TTITLE2=Samburai
TTITLE3=Cristais de Estrelas
TTITLE4=Ternura Antiga
TTITLE5=Brigas Nunca Mais
TTITLE6="Bluss" Bom Bom e Água
TTITLE7=Indra
TTITLE8=Meu Querido Borzolino
TTITLE9=Sea and Sand
TTITLE10=Intriga no Boteco do Padilha
TTITLE11=Baião Alucinado
EXTD=YEAR: 1996
EXTT0=
EXTT1=
EXTT2=
EXTT3=
EXTT4=
EXTT5=
EXTT6=
EXTT7=
EXTT8=
EXTT9=
EXTT10=
EXTT11=
PLAYORDER=
